<svg width="557" height="87" viewBox="0 0 557 87" xmlns="http://www.w3.org/2000/svg" fill="#202020">
<path d="M19.44 86.4C13.12 86.4 8.28 84.6 4.92 81C1.64 77.4 0 72.32 0 65.76V20.64C0 14.08 1.64 9 4.92 5.4C8.28 1.8 13.12 0 19.44 0C25.76 0 30.56 1.8 33.84 5.4C37.2 9 38.88 14.08 38.88 20.64V29.52H26.4V19.8C26.4 14.6 24.2 12 19.8 12C15.4 12 13.2 14.6 13.2 19.8V66.72C13.2 71.84 15.4 74.4 19.8 74.4C24.2 74.4 26.4 71.84 26.4 66.72V53.88H38.88V65.76C38.88 72.32 37.2 77.4 33.84 81C30.56 84.6 25.76 86.4 19.44 86.4Z" />
<path d="M46.7775 1.2H66.3375C73.1375 1.2 78.0975 2.8 81.2175 6C84.3375 9.12 85.8975 13.96 85.8975 20.52V25.68C85.8975 34.4 83.0175 39.92 77.2575 42.24V42.48C80.4575 43.44 82.6975 45.4 83.9775 48.36C85.3375 51.32 86.0175 55.28 86.0175 60.24V75C86.0175 77.4 86.0975 79.36 86.2575 80.88C86.4175 82.32 86.8175 83.76 87.4575 85.2H74.0175C73.5375 83.84 73.2175 82.56 73.0575 81.36C72.8975 80.16 72.8175 78 72.8175 74.88V59.52C72.8175 55.68 72.1775 53 70.8975 51.48C69.6975 49.96 67.5775 49.2 64.5375 49.2H59.9775V85.2H46.7775V1.2ZM64.7775 37.2C67.4175 37.2 69.3775 36.52 70.6575 35.16C72.0175 33.8 72.6975 31.52 72.6975 28.32V21.84C72.6975 18.8 72.1375 16.6 71.0175 15.24C69.9775 13.88 68.2975 13.2 65.9775 13.2H59.9775V37.2H64.7775Z" />
<path d="M105.421 49.44L89.4609 1.2H103.501L112.501 32.04H112.741L121.741 1.2H134.581L118.621 49.44V85.2H105.421V49.44Z" />
<path d="M155.812 86.4C149.413 86.4 144.572 84.6 141.292 81C138.012 77.32 136.372 72.08 136.372 65.28V60.48H148.852V66.24C148.852 71.68 151.133 74.4 155.693 74.4C157.933 74.4 159.613 73.76 160.732 72.48C161.932 71.12 162.533 68.96 162.533 66C162.533 62.48 161.733 59.4 160.133 56.76C158.533 54.04 155.572 50.8 151.253 47.04C145.812 42.24 142.012 37.92 139.852 34.08C137.692 30.16 136.613 25.76 136.613 20.88C136.613 14.24 138.292 9.12 141.652 5.52C145.012 1.84 149.893 0 156.292 0C162.613 0 167.372 1.84 170.572 5.52C173.852 9.12 175.493 14.32 175.493 21.12V24.6H163.012V20.28C163.012 17.4 162.452 15.32 161.333 14.04C160.213 12.68 158.573 12 156.413 12C152.013 12 149.812 14.68 149.812 20.04C149.812 23.08 150.612 25.92 152.212 28.56C153.892 31.2 156.893 34.4 161.213 38.16C166.733 42.96 170.533 47.32 172.613 51.24C174.693 55.16 175.732 59.76 175.732 65.04C175.732 71.92 174.012 77.2 170.572 80.88C167.212 84.56 162.292 86.4 155.812 86.4Z" />
<path d="M193.621 13.2H179.821V1.2H220.621V13.2H206.821V85.2H193.621V13.2Z" />
<path d="M231.704 1.2H249.584L263.264 85.2H250.064L247.664 68.52V68.76H232.664L230.264 85.2H218.024L231.704 1.2ZM246.104 57.36L240.224 15.84H239.984L234.224 57.36H246.104Z" />
<path d="M269.668 1.2H282.868V73.2H304.588V85.2H269.668V1.2Z" />
<path d="M326.657 1.2H339.977L348.617 66.36H348.857L357.497 1.2H369.617L356.897 85.2H339.377L326.657 1.2Z" />
<path d="M375.957 1.2H389.157V85.2H375.957V1.2Z" />
<path d="M416.203 86.4C409.803 86.4 404.963 84.6 401.683 81C398.403 77.32 396.763 72.08 396.763 65.28V60.48H409.243V66.24C409.243 71.68 411.523 74.4 416.083 74.4C418.323 74.4 420.003 73.76 421.123 72.48C422.323 71.12 422.923 68.96 422.923 66C422.923 62.48 422.123 59.4 420.523 56.76C418.923 54.04 415.963 50.8 411.643 47.04C406.203 42.24 402.403 37.92 400.243 34.08C398.083 30.16 397.003 25.76 397.003 20.88C397.003 14.24 398.683 9.12 402.043 5.52C405.403 1.84 410.283 0 416.683 0C423.003 0 427.763 1.84 430.963 5.52C434.243 9.12 435.883 14.32 435.883 21.12V24.6H423.403V20.28C423.403 17.4 422.843 15.32 421.723 14.04C420.603 12.68 418.963 12 416.803 12C412.403 12 410.203 14.68 410.203 20.04C410.203 23.08 411.003 25.92 412.603 28.56C414.283 31.2 417.283 34.4 421.603 38.16C427.123 42.96 430.923 47.32 433.003 51.24C435.083 55.16 436.123 59.76 436.123 65.04C436.123 71.92 434.403 77.2 430.963 80.88C427.603 84.56 422.683 86.4 416.203 86.4Z" />
<path d="M443.692 1.2H456.892V85.2H443.692V1.2Z" />
<path d="M485.858 86.4C479.378 86.4 474.418 84.56 470.978 80.88C467.538 77.2 465.818 72 465.818 65.28V21.12C465.818 14.4 467.538 9.2 470.978 5.52C474.418 1.84 479.378 0 485.858 0C492.338 0 497.297 1.84 500.737 5.52C504.177 9.2 505.897 14.4 505.897 21.12V65.28C505.897 72 504.177 77.2 500.737 80.88C497.297 84.56 492.338 86.4 485.858 86.4ZM485.858 74.4C490.418 74.4 492.698 71.64 492.698 66.12V20.28C492.698 14.76 490.418 12 485.858 12C481.298 12 479.017 14.76 479.017 20.28V66.12C479.017 71.64 481.298 74.4 485.858 74.4Z" />
<path d="M514.824 1.2H531.384L544.224 51.48H544.464V1.2H556.224V85.2H542.664L526.824 23.88H526.584V85.2H514.824V1.2Z" />
</svg>
